<?xml version="1.0" encoding="utf-8"?>
<!-- Generator: Adobe Illustrator 26.4.1, SVG Export Plug-In . SVG Version: 6.00 Build 0)  -->
<svg version="1.1" id="Layer_1" xmlns="http://www.w3.org/2000/svg" xmlns:xlink="http://www.w3.org/1999/xlink" x="0px" y="0px"
	 viewBox="0 0 100 100" style="enable-background:new 0 0 100 100;" xml:space="preserve">
<style type="text/css">
	.st0{fill:#231F20;}
	.st1{font-family:'Arial-BoldMT';}
	.st2{font-size:12px;}
	.st3{font-family:'ArialMT';}
</style>
<g>
	<path class="st0" d="M57.6,33.1c0,4.2-3.4,7.6-7.6,7.6s-7.6-3.4-7.6-7.6s3.4-7.6,7.6-7.6C54.2,25.5,57.6,28.9,57.6,33.1"/>
	<path class="st0" d="M57.6,66.9c0,4.2-3.4,7.6-7.6,7.6s-7.6-3.4-7.6-7.6s3.4-7.6,7.6-7.6C54.2,59.4,57.6,62.8,57.6,66.9"/>
</g>
<text transform="matrix(1 0 0 1 9.2728 89.2607)"><tspan x="0" y="0" class="st0 st1 st2">você </tspan><tspan x="30.1" y="0" class="st0 st3 st2">para </tspan><tspan x="57.5" y="0" class="st0 st1 st2">mim</tspan></text>
<text transform="matrix(1 0 0 1 19.1913 18.1079)"><tspan x="0" y="0" class="st0 st1 st2">eu </tspan><tspan x="17.3" y="0" class="st0 st3 st2">em </tspan><tspan x="37.3" y="0" class="st0 st1 st2">mim </tspan></text>
</svg>
