<?xml version="1.0" encoding="utf-8"?>
<!-- Generator: Adobe Illustrator 26.4.1, SVG Export Plug-In . SVG Version: 6.00 Build 0)  -->
<svg version="1.1" id="Layer_1" xmlns="http://www.w3.org/2000/svg" xmlns:xlink="http://www.w3.org/1999/xlink" x="0px" y="0px"
	 viewBox="0 0 100 100" style="enable-background:new 0 0 100 100;" xml:space="preserve">
<style type="text/css">
	.st0{fill:#231F20;}
	.st1{font-family:'Arial-BoldMT';}
	.st2{font-size:12px;}
</style>
<g>
	<path class="st0" d="M42.4,50.1c0,4.2-3.4,7.6-7.6,7.6s-7.6-3.4-7.6-7.6s3.4-7.6,7.6-7.6S42.4,45.9,42.4,50.1"/>
	<path class="st0" d="M42.4,24.1c0,4.2-3.4,7.6-7.6,7.6s-7.6-3.4-7.6-7.6s3.4-7.6,7.6-7.6S42.4,19.9,42.4,24.1"/>
	<path class="st0" d="M42.4,75.9c0,4.2-3.4,7.6-7.6,7.6s-7.6-3.4-7.6-7.6s3.4-7.6,7.6-7.6C39,68.4,42.4,71.8,42.4,75.9"/>
</g>
<text transform="matrix(1 0 0 1 46.5547 27.2808)"><tspan x="0" y="0" class="st0 st1 st2">v</tspan><tspan x="6.6" y="0" class="st0 st1 st2">em</tspan></text>
<text transform="matrix(1 0 0 1 45.9048 53.9991)" class="st0 st1 st2">ﬁcam</text>
<text transform="matrix(1 0 0 1 46.5344 79.4512)"><tspan x="0" y="0" class="st0 st1 st2">v</tspan><tspan x="6.6" y="0" class="st0 st1 st2">ão</tspan></text>
</svg>
