<?xml version="1.0" encoding="utf-8"?>
<!-- Generator: Adobe Illustrator 26.4.1, SVG Export Plug-In . SVG Version: 6.00 Build 0)  -->
<svg version="1.1" id="Layer_1" xmlns="http://www.w3.org/2000/svg" xmlns:xlink="http://www.w3.org/1999/xlink" x="0px" y="0px"
	 viewBox="0 0 100 100" style="enable-background:new 0 0 100 100;" xml:space="preserve">
<style type="text/css">
	.st0{fill:#231F20;}
	.st1{font-family:'Arial-BoldMT';}
	.st2{font-size:12px;}
</style>
<g>
	<path class="st0" d="M26.4,60.1c0,4.2-3.4,7.6-7.6,7.6s-7.6-3.4-7.6-7.6s3.4-7.6,7.6-7.6C23,52.6,26.4,56,26.4,60.1"/>
	<path class="st0" d="M26.4,39.9c0,4.2-3.4,7.6-7.6,7.6s-7.6-3.4-7.6-7.6s3.4-7.6,7.6-7.6C23,32.3,26.4,35.7,26.4,39.9"/>
	<path class="st0" d="M26.4,19.6c0,4.2-3.4,7.6-7.6,7.6s-7.6-3.4-7.6-7.6s3.4-7.6,7.6-7.6S26.4,15.4,26.4,19.6"/>
	<path class="st0" d="M26.4,80.4c0,4.2-3.4,7.6-7.6,7.6s-7.6-3.4-7.6-7.6s3.4-7.6,7.6-7.6C23,72.9,26.4,76.3,26.4,80.4"/>
</g>
<text transform="matrix(1 0 0 1 32.8442 22.267)" class="st0 st1 st2">o quê</text>
<text transform="matrix(1 0 0 1 32.8442 42.0441)" class="st0 st1 st2">com quem</text>
<text transform="matrix(1 0 0 1 32.8437 63.1893)" class="st0 st1 st2">como</text>
<text transform="matrix(1 0 0 1 32.5566 83.7803)" class="st0 st1 st2">po</text>
<text transform="matrix(1 0 0 1 45.8566 83.7803)" class="st0 st1 st2">r</text>
<text transform="matrix(1 0 0 1 49.7566 83.7803)" class="st0 st1 st2">quê</text>
</svg>
