<?xml version="1.0" encoding="utf-8"?>
<!-- Generator: Adobe Illustrator 26.4.1, SVG Export Plug-In . SVG Version: 6.00 Build 0)  -->
<svg version="1.1" id="Layer_1" xmlns="http://www.w3.org/2000/svg" xmlns:xlink="http://www.w3.org/1999/xlink" x="0px" y="0px"
	 viewBox="0 0 100 100" style="enable-background:new 0 0 100 100;" xml:space="preserve">
<style type="text/css">
	.st0{fill:#231F20;}
	.st1{fill:none;stroke:#231F20;stroke-width:3;stroke-miterlimit:10;}
	.st2{font-family:'Arial-BoldMT';}
	.st3{font-size:12px;}
	.st4{font-family:'ArialMT';}
</style>
<g>
	<g>
		<path class="st0" d="M43.4,32.7c3,3,3,7.7,0,10.7s-7.7,3-10.7,0s-3-7.7,0-10.7C35.6,29.7,40.4,29.7,43.4,32.7"/>
		<path class="st0" d="M67.3,56.6c3,3,3,7.7,0,10.7s-7.7,3-10.7,0s-3-7.7,0-10.7C59.6,53.7,64.4,53.7,67.3,56.6"/>
	</g>
	<line class="st1" x1="36.6" y1="36.6" x2="63.4" y2="63.4"/>
</g>
<text transform="matrix(1 0 0 1 29.914 83.9772)"><tspan x="0" y="0" class="st0 st2 st3">eu </tspan><tspan x="17" y="0" class="st0 st4 st3">em </tspan><tspan x="37" y="0" class="st0 st2 st3">você</tspan></text>
<text transform="matrix(1 0 0 1 5.8063 24.3067)"><tspan x="0" y="0" class="st0 st2 st3">eu </tspan><tspan x="17.3" y="0" class="st0 st4 st3">em </tspan><tspan x="37.3" y="0" class="st0 st2 st3">mim </tspan></text>
</svg>
