<?xml version="1.0" encoding="utf-8"?>
<!-- Generator: Adobe Illustrator 26.4.1, SVG Export Plug-In . SVG Version: 6.00 Build 0)  -->
<svg version="1.1" id="Layer_1" xmlns="http://www.w3.org/2000/svg" xmlns:xlink="http://www.w3.org/1999/xlink" x="0px" y="0px"
	 viewBox="0 0 100 100" style="enable-background:new 0 0 100 100;" xml:space="preserve">
<style type="text/css">
	.st0{fill:#231F20;}
	.st1{fill:none;stroke:#231F20;stroke-width:3;stroke-miterlimit:10;}
	.st2{font-family:'Arial-BoldMT';}
	.st3{font-size:12px;}
</style>
<g>
	<g>
		<path class="st0" d="M36.4,44.7c3,3,3,7.7,0,10.7s-7.7,3-10.7,0s-3-7.7,0-10.7C28.6,41.7,33.4,41.7,36.4,44.7"/>
		<path class="st0" d="M18,26.3c3,3,3,7.7,0,10.7s-7.7,3-10.7,0s-3-7.7,0-10.7C10.3,23.4,15.1,23.4,18,26.3"/>
		<path class="st0" d="M54.7,63c3,3,3,7.7,0,10.7s-7.7,3-10.7,0c-3-3-3-7.7,0-10.7C46.9,60,51.7,60,54.7,63"/>
	</g>
	<line class="st1" x1="10.5" y1="29.5" x2="51.5" y2="70.5"/>
</g>
<text transform="matrix(1 0 0 1 23.8554 32.5471)" class="st0 st2 st3">passado</text>
<text transform="matrix(1 0 0 1 41.6739 51.0813)"><tspan x="0" y="0" class="st0 st2 st3">p</tspan><tspan x="7.3" y="0" class="st0 st2 st3">r</tspan><tspan x="11.9" y="0" class="st0 st2 st3">esente</tspan></text>
<text transform="matrix(1 0 0 1 60.8787 72.5591)"><tspan x="0" y="0" class="st0 st2 st3">futu</tspan><tspan x="22.7" y="0" class="st0 st2 st3">r</tspan><tspan x="27.2" y="0" class="st0 st2 st3">o</tspan></text>
</svg>
