<?xml version="1.0" encoding="utf-8"?>
<!-- Generator: Adobe Illustrator 26.4.1, SVG Export Plug-In . SVG Version: 6.00 Build 0)  -->
<svg version="1.1" id="Layer_1" xmlns="http://www.w3.org/2000/svg" xmlns:xlink="http://www.w3.org/1999/xlink" x="0px" y="0px"
	 viewBox="0 0 100 100" style="enable-background:new 0 0 100 100;" xml:space="preserve">
<style type="text/css">
	.st0{fill:#231F20;}
	.st1{fill:none;stroke:#231F20;stroke-width:3;stroke-miterlimit:10;}
	.st2{font-family:'Arial-BoldMT';}
	.st3{font-size:12px;}
</style>
<g>
	<path class="st0" d="M45.9,51.8c3,3,3,7.7,0,10.7s-7.7,3-10.7,0s-3-7.7,0-10.7C38.2,48.9,43,48.9,45.9,51.8"/>
	<path class="st0" d="M31.6,37.5c3,3,3,7.7,0,10.7s-7.7,3-10.7,0s-3-7.7,0-10.7C23.8,34.5,28.6,34.5,31.6,37.5"/>
	<path class="st0" d="M17.2,23.1c3,3,3,7.7,0,10.7s-7.7,3-10.7,0s-3-7.7,0-10.7C9.5,20.2,14.3,20.2,17.2,23.1"/>
	<path class="st0" d="M60.3,66.2c3,3,3,7.7,0,10.7s-7.7,3-10.7,0s-3-7.7,0-10.7C52.5,63.2,57.3,63.2,60.3,66.2"/>
</g>
<line class="st1" x1="12.9" y1="29.5" x2="53.9" y2="70.5"/>
<text transform="matrix(1 0 0 1 24.0312 30.0642)" class="st0 st2 st3">bio</text>
<text transform="matrix(1 0 0 1 37.0452 45.0962)" class="st0 st2 st3">sócio</text>
<text transform="matrix(1 0 0 1 52.7927 58.7653)" class="st0 st2 st3">psico</text>
<text transform="matrix(1 0 0 1 66.3131 74.3148)" class="st0 st2 st3">espi</text>
<text transform="matrix(1 0 0 1 89.1131 74.3148)" class="st0 st2 st3">r</text>
<text transform="matrix(1 0 0 1 93.6131 74.3148)" class="st0 st2 st3">.</text>
</svg>
