<?xml version="1.0" encoding="utf-8"?>
<!-- Generator: Adobe Illustrator 26.4.1, SVG Export Plug-In . SVG Version: 6.00 Build 0)  -->
<svg version="1.1" id="Layer_1" xmlns="http://www.w3.org/2000/svg" xmlns:xlink="http://www.w3.org/1999/xlink" x="0px" y="0px"
	 viewBox="0 0 100 100" style="enable-background:new 0 0 100 100;" xml:space="preserve">
<style type="text/css">
	.st0{fill:#231F20;}
	.st1{fill:none;stroke:#231F20;stroke-width:3;stroke-miterlimit:10;}
	.st2{font-family:'Arial-BoldMT';}
	.st3{font-size:12px;}
	.st4{font-family:'ArialMT';}
</style>
<g>
	<g>
		<path class="st0" d="M66.9,48.4c-4.2,0-7.6-3.4-7.6-7.6s3.4-7.6,7.6-7.6s7.6,3.4,7.6,7.6S71.1,48.4,66.9,48.4"/>
		<path class="st0" d="M33.1,48.4c-4.2,0-7.6-3.4-7.6-7.6s3.4-7.6,7.6-7.6s7.6,3.4,7.6,7.6C40.6,45,37.2,48.4,33.1,48.4"/>
	</g>
	<line class="st1" x1="69" y1="40.8" x2="31" y2="40.8"/>
</g>
<text transform="matrix(1 0 0 1 52.6673 64.1957)"><tspan x="0" y="0" class="st0 st2 st3">você</tspan><tspan x="5.2" y="11" class="st0 st4 st3">em</tspan><tspan x="-0.2" y="22" class="st0 st2 st3">você</tspan></text>
<text transform="matrix(1 0 0 1 23.2282 63.0742)"><tspan x="0" y="0" class="st0 st2 st3">eu </tspan><tspan x="-1.3" y="11" class="st0 st4 st3">em</tspan><tspan x="-7" y="22" class="st0 st2 st3">mim </tspan></text>
</svg>
