<?xml version="1.0" encoding="utf-8"?>
<!-- Generator: Adobe Illustrator 26.4.1, SVG Export Plug-In . SVG Version: 6.00 Build 0)  -->
<svg version="1.1" id="Layer_1" xmlns="http://www.w3.org/2000/svg" xmlns:xlink="http://www.w3.org/1999/xlink" x="0px" y="0px"
	 viewBox="0 0 100 100" style="enable-background:new 0 0 100 100;" xml:space="preserve">
<style type="text/css">
	.st0{fill:none;stroke:#231F20;stroke-width:3;stroke-miterlimit:10;}
	.st1{fill:#231F20;}
	.st2{font-family:'Arial-BoldMT';}
	.st3{font-size:12px;}
</style>
<g>
	<rect x="21.5" y="21.5" class="st0" width="57" height="57"/>
	<path class="st1" d="M21.4,29c-4.2,0-7.6-3.4-7.6-7.6s3.4-7.6,7.6-7.6s7.6,3.4,7.6,7.6S25.6,29,21.4,29"/>
	<path class="st1" d="M21.4,86c-4.2,0-7.6-3.4-7.6-7.6s3.4-7.6,7.6-7.6s7.6,3.4,7.6,7.6S25.6,86,21.4,86"/>
	<path class="st1" d="M78.4,29c-4.2,0-7.6-3.4-7.6-7.6s3.4-7.6,7.6-7.6s7.6,3.4,7.6,7.6S82.6,29,78.4,29"/>
	<path class="st1" d="M78.4,86c-4.2,0-7.6-3.4-7.6-7.6s3.4-7.6,7.6-7.6s7.6,3.4,7.6,7.6S82.6,86,78.4,86"/>
</g>
<text transform="matrix(1 0 0 1 5.5496 97.203)" class="st1 st2 st3">físico</text>
<text transform="matrix(1 0 0 1 58.3458 96.6383)" class="st1 st2 st3">mental</text>
<text transform="matrix(1 0 0 1 2.4697 10.6584)" class="st1 st2 st3">espirit.</text>
<text transform="matrix(1 0 0 1 53.5627 10.0937)" class="st1 st2 st3">emocio.</text>
</svg>
