<?xml version="1.0" encoding="utf-8"?>
<!-- Generator: Adobe Illustrator 26.4.1, SVG Export Plug-In . SVG Version: 6.00 Build 0)  -->
<svg version="1.1" id="Layer_1" xmlns="http://www.w3.org/2000/svg" xmlns:xlink="http://www.w3.org/1999/xlink" x="0px" y="0px"
	 viewBox="0 0 100 100" style="enable-background:new 0 0 100 100;" xml:space="preserve">
<style type="text/css">
	.st0{fill:#231F20;}
	.st1{fill:none;stroke:#231F20;stroke-width:3;stroke-miterlimit:10;}
	.st2{font-family:'Arial-BoldMT';}
	.st3{font-size:12px;}
	.st4{font-family:'ArialMT';}
</style>
<g>
	<g>
		<path class="st0" d="M67.3,43.4c-3,3-7.7,3-10.7,0s-3-7.7,0-10.7s7.7-3,10.7,0C70.3,35.6,70.3,40.4,67.3,43.4"/>
		<path class="st0" d="M43.4,67.3c-3,3-7.7,3-10.7,0s-3-7.7,0-10.7s7.7-3,10.7,0C46.3,59.6,46.3,64.4,43.4,67.3"/>
	</g>
	<line class="st1" x1="63.4" y1="36.6" x2="36.6" y2="63.4"/>
</g>
<text transform="matrix(1 0 0 1 24.6011 23.4794)"><tspan x="0" y="0" class="st0 st2 st3">você </tspan><tspan x="30.1" y="0" class="st0 st4 st3">em </tspan><tspan x="49.8" y="0" class="st0 st2 st3">mim</tspan></text>
<text transform="matrix(1 0 0 1 5.7442 82.7566)"><tspan x="0" y="0" class="st0 st2 st3">eu </tspan><tspan x="17.3" y="0" class="st0 st4 st3">em </tspan><tspan x="37.3" y="0" class="st0 st2 st3">mim </tspan></text>
</svg>
