<?xml version="1.0" encoding="utf-8"?>
<!-- Generator: Adobe Illustrator 26.4.1, SVG Export Plug-In . SVG Version: 6.00 Build 0)  -->
<svg version="1.1" id="Layer_1" xmlns="http://www.w3.org/2000/svg" xmlns:xlink="http://www.w3.org/1999/xlink" x="0px" y="0px"
	 viewBox="0 0 100 100" style="enable-background:new 0 0 100 100;" xml:space="preserve">
<style type="text/css">
	.st0{fill:#231F20;}
	.st1{fill:none;stroke:#231F20;stroke-width:3;stroke-miterlimit:10;}
	.st2{font-family:'Arial-BoldMT';}
	.st3{font-size:12px;}
</style>
<g>
	<g>
		<path class="st0" d="M76.8,55.4c-3,3-7.7,3-10.7,0c-3-3-3-7.7,0-10.7c3-3,7.7-3,10.7,0C79.8,47.6,79.8,52.4,76.8,55.4"/>
		<path class="st0" d="M95.2,37c-3,3-7.7,3-10.7,0s-3-7.7,0-10.7s7.7-3,10.7,0C98.1,29.3,98.1,34.1,95.2,37"/>
		<path class="st0" d="M58.5,73.7c-3,3-7.7,3-10.7,0s-3-7.7,0-10.7c3-3,7.7-3,10.7,0C61.5,65.9,61.5,70.7,58.5,73.7"/>
	</g>
	<line class="st1" x1="92" y1="29.5" x2="51" y2="70.5"/>
</g>
<text transform="matrix(1 0 0 1 43.4292 33.36)" class="st0 st2 st3">divino</text>
<text transform="matrix(1 0 0 1 14.0137 51.6118)" class="st0 st2 st3">humano</text>
<text transform="matrix(1 0 0 1 3.5796 73.372)" class="st0 st2 st3">animal</text>
</svg>
