<?xml version="1.0" encoding="utf-8"?>
<!-- Generator: Adobe Illustrator 26.4.1, SVG Export Plug-In . SVG Version: 6.00 Build 0)  -->
<svg version="1.1" id="Layer_1" xmlns="http://www.w3.org/2000/svg" xmlns:xlink="http://www.w3.org/1999/xlink" x="0px" y="0px"
	 viewBox="0 0 100 100" style="enable-background:new 0 0 100 100;" xml:space="preserve">
<style type="text/css">
	.st0{fill:#231F20;}
	.st1{fill:none;stroke:#231F20;stroke-width:3;stroke-miterlimit:10;}
	.st2{font-family:'Arial-BoldMT';}
	.st3{font-size:12px;}
</style>
<g>
	<g>
		<path class="st0" d="M62.5,62.5c-3,3-7.7,3-10.7,0s-3-7.7,0-10.7s7.7-3,10.7,0C65.4,54.8,65.4,59.6,62.5,62.5"/>
		<path class="st0" d="M76.8,48.2c-3,3-7.7,3-10.7,0c-3-3-3-7.7,0-10.7c3-3,7.7-3,10.7,0C79.8,40.4,79.8,45.2,76.8,48.2"/>
		<path class="st0" d="M91.2,33.8c-3,3-7.7,3-10.7,0s-3-7.7,0-10.7s7.7-3,10.7,0C94.1,26.1,94.1,30.9,91.2,33.8"/>
		<path class="st0" d="M48.1,76.9c-3,3-7.7,3-10.7,0s-3-7.7,0-10.7s7.7-3,10.7,0C51.1,69.1,51.1,73.9,48.1,76.9"/>
	</g>
	<line class="st1" x1="84.8" y1="29.5" x2="43.8" y2="70.5"/>
</g>
<text transform="matrix(1 0 0 1 48.1262 30.1454)"><tspan x="0" y="0" class="st0 st2 st3">f</tspan><tspan x="3.9" y="0" class="st0 st2 st3">ogo</tspan></text>
<text transform="matrix(1 0 0 1 47.9515 44.7929)" class="st0 st2 st3">ar</text>
<text transform="matrix(1 0 0 1 18.6269 59.4824)" class="st0 st2 st3">água</text>
<text transform="matrix(1 0 0 1 5.294 75.149)" class="st0 st2 st3">terra</text>
</svg>
