<?xml version="1.0" encoding="utf-8"?>
<!-- Generator: Adobe Illustrator 26.4.1, SVG Export Plug-In . SVG Version: 6.00 Build 0)  -->
<svg version="1.1" id="Layer_1" xmlns="http://www.w3.org/2000/svg" xmlns:xlink="http://www.w3.org/1999/xlink" x="0px" y="0px"
	 viewBox="0 0 100 100" style="enable-background:new 0 0 100 100;" xml:space="preserve">
<style type="text/css">
	.st0{fill:#231F20;}
	.st1{fill:none;stroke:#231F20;stroke-width:3;stroke-miterlimit:10;}
</style>
<g>
	<g>
		<path class="st0" d="M55.4,44.7c3,3,3,7.7,0,10.7c-3,3-7.7,3-10.7,0c-3-3-3-7.7,0-10.7C47.6,41.7,52.4,41.7,55.4,44.7"/>
		<path class="st0" d="M37,26.3c3,3,3,7.7,0,10.7c-3,3-7.7,3-10.7,0c-3-3-3-7.7,0-10.7C29.3,23.4,34.1,23.4,37,26.3"/>
		<path class="st0" d="M73.7,63c3,3,3,7.7,0,10.7c-3,3-7.7,3-10.7,0c-3-3-3-7.7,0-10.7C65.9,60,70.7,60,73.7,63"/>
	</g>
	<line class="st1" x1="29.5" y1="29.5" x2="70.5" y2="70.5"/>
</g>
</svg>
