<?xml version="1.0" encoding="utf-8"?>
<!-- Generator: Adobe Illustrator 26.4.1, SVG Export Plug-In . SVG Version: 6.00 Build 0)  -->
<svg version="1.1" id="Layer_1" xmlns="http://www.w3.org/2000/svg" xmlns:xlink="http://www.w3.org/1999/xlink" x="0px" y="0px"
	 viewBox="0 0 100 100" style="enable-background:new 0 0 100 100;" xml:space="preserve">
<style type="text/css">
	.st0{fill:#231F20;}
	.st1{fill:none;stroke:#231F20;stroke-width:3;stroke-miterlimit:10;}
</style>
<g>
	<path class="st0" d="M62.5,51.8c3,3,3,7.7,0,10.7c-3,3-7.7,3-10.7,0c-3-3-3-7.7,0-10.7C54.8,48.9,59.6,48.9,62.5,51.8"/>
	<path class="st0" d="M48.2,37.5c3,3,3,7.7,0,10.7c-3,3-7.7,3-10.7,0c-3-3-3-7.7,0-10.7C40.4,34.5,45.2,34.5,48.2,37.5"/>
	<path class="st0" d="M33.8,23.1c3,3,3,7.7,0,10.7c-3,3-7.7,3-10.7,0c-3-3-3-7.7,0-10.7C26.1,20.2,30.9,20.2,33.8,23.1"/>
	<path class="st0" d="M76.9,66.2c3,3,3,7.7,0,10.7c-3,3-7.7,3-10.7,0c-3-3-3-7.7,0-10.7C69.1,63.2,73.9,63.2,76.9,66.2"/>
</g>
<line class="st1" x1="29.5" y1="29.5" x2="70.5" y2="70.5"/>
</svg>
