<?xml version="1.0" encoding="utf-8"?>
<!-- Generator: Adobe Illustrator 26.4.1, SVG Export Plug-In . SVG Version: 6.00 Build 0)  -->
<svg version="1.1" id="Layer_1" xmlns="http://www.w3.org/2000/svg" xmlns:xlink="http://www.w3.org/1999/xlink" x="0px" y="0px"
	 viewBox="0 0 100 100" style="enable-background:new 0 0 100 100;" xml:space="preserve">
<style type="text/css">
	.st0{fill:none;stroke:#231F20;stroke-width:3;stroke-miterlimit:10;}
	.st1{fill:#231F20;}
</style>
<g>
	<polygon class="st0" points="50,24.8 21.5,74.2 78.5,74.2 	"/>
	<path class="st1" d="M50,33.6c-4.2,0-7.6-3.4-7.6-7.6c0-4.2,3.4-7.6,7.6-7.6s7.6,3.4,7.6,7.6C57.6,30.2,54.2,33.6,50,33.6"/>
	<path class="st1" d="M78,81.6c-4.2,0-7.6-3.4-7.6-7.6c0-4.2,3.4-7.6,7.6-7.6s7.6,3.4,7.6,7.6C85.6,78.2,82.2,81.6,78,81.6"/>
	<path class="st1" d="M22,80.6c-4.2,0-7.6-3.4-7.6-7.6c0-4.2,3.4-7.6,7.6-7.6s7.6,3.4,7.6,7.6C29.6,77.2,26.2,80.6,22,80.6"/>
</g>
</svg>
