<?xml version="1.0" encoding="utf-8"?>
<!-- Generator: Adobe Illustrator 26.4.1, SVG Export Plug-In . SVG Version: 6.00 Build 0)  -->
<svg version="1.1" id="Layer_1" xmlns="http://www.w3.org/2000/svg" xmlns:xlink="http://www.w3.org/1999/xlink" x="0px" y="0px"
	 viewBox="0 0 100 100" style="enable-background:new 0 0 100 100;" xml:space="preserve">
<style type="text/css">
	.st0{fill:#231F20;}
	.st1{fill:none;stroke:#231F20;stroke-width:3;stroke-miterlimit:10;}
</style>
<g>
	<g>
		<path class="st0" d="M55.3,55.4c-3,3-7.7,3-10.7,0c-3-3-3-7.7,0-10.7c3-3,7.7-3,10.7,0C58.3,47.6,58.3,52.4,55.3,55.4"/>
		<path class="st0" d="M73.7,37c-3,3-7.7,3-10.7,0c-3-3-3-7.7,0-10.7c3-3,7.7-3,10.7,0C76.6,29.3,76.6,34.1,73.7,37"/>
		<path class="st0" d="M37,73.7c-3,3-7.7,3-10.7,0c-3-3-3-7.7,0-10.7c3-3,7.7-3,10.7,0C40,65.9,40,70.7,37,73.7"/>
	</g>
	<line class="st1" x1="70.5" y1="29.5" x2="29.5" y2="70.5"/>
</g>
</svg>
