<?xml version="1.0" encoding="utf-8"?>
<!-- Generator: Adobe Illustrator 26.4.1, SVG Export Plug-In . SVG Version: 6.00 Build 0)  -->
<svg version="1.1" id="Layer_1" xmlns="http://www.w3.org/2000/svg" xmlns:xlink="http://www.w3.org/1999/xlink" x="0px" y="0px"
	 viewBox="0 0 100 100" style="enable-background:new 0 0 100 100;" xml:space="preserve">
<style type="text/css">
	.st0{fill:#231F20;}
	.st1{fill:none;stroke:#231F20;stroke-width:3;stroke-miterlimit:10;}
</style>
<g>
	<g>
		<path class="st0" d="M48.2,62.5c-3,3-7.7,3-10.7,0c-3-3-3-7.7,0-10.7c3-3,7.7-3,10.7,0C51.1,54.8,51.1,59.6,48.2,62.5"/>
		<path class="st0" d="M62.5,48.2c-3,3-7.7,3-10.7,0c-3-3-3-7.7,0-10.7c3-3,7.7-3,10.7,0C65.5,40.4,65.5,45.2,62.5,48.2"/>
		<path class="st0" d="M76.9,33.8c-3,3-7.7,3-10.7,0c-3-3-3-7.7,0-10.7c3-3,7.7-3,10.7,0C79.8,26.1,79.8,30.9,76.9,33.8"/>
		<path class="st0" d="M33.8,76.9c-3,3-7.7,3-10.7,0c-3-3-3-7.7,0-10.7c3-3,7.7-3,10.7,0C36.8,69.1,36.8,73.9,33.8,76.9"/>
	</g>
	<line class="st1" x1="70.5" y1="29.5" x2="29.5" y2="70.5"/>
</g>
</svg>
